<?xml version="1.0" encoding="utf-8"?>
<!-- Generator: Adobe Illustrator 18.0.0, SVG Export Plug-In . SVG Version: 6.00 Build 0)  -->
<!DOCTYPE svg PUBLIC "-//W3C//DTD SVG 1.1//EN" "http://www.w3.org/Graphics/SVG/1.1/DTD/svg11.dtd">
<svg version="1.1" id="Layer_1" xmlns="http://www.w3.org/2000/svg" xmlns:xlink="http://www.w3.org/1999/xlink" x="0px" y="0px"
	 viewBox="0 0 200 200" enable-background="new 0 0 200 200" xml:space="preserve">
<g id="Layer_2" display="none">
	<rect y="-4.3" display="inline" width="200" height="209.6"/>
</g>
<g id="Layer_1_1_">
	<path opacity="0.3" fill="#FFFFFF" enable-background="new    " d="M175.3,109.8C172,93.7,162.7,79.9,149,70.9s-30.1-12.2-46.1-8.9
		c-3.8,0.8-7.4,1.9-10.9,3.3c1.3-1.3,2.7-2.6,4.2-3.8c18.7-14.9,46.1-11.9,61,6.9c3.1,3.9,8.8,4.5,12.6,1.4
		c3.9-3.1,4.5-8.8,1.4-12.6c-10.2-12.8-24.8-20.9-41.1-22.7s-32.3,2.8-45.2,13c-12.9,10.1-21,24.7-22.8,41
		c-0.4,3.8-0.5,7.6-0.2,11.4c-0.9-1.6-1.7-3.3-2.3-5.1c-4.1-10.9-3.7-22.6,1.1-33.2s13.4-18.7,24.2-22.7c4.7-1.7,7-6.9,5.3-11.6
		s-6.9-7-11.6-5.3c-15.4,5.8-27.5,17.2-34.3,32.1s-7.3,31.6-1.6,47c7.4,19.7,23.9,33.4,43,38c-1.9,0.3-3.8,0.6-5.7,0.6
		c-11.6,0.5-22.7-3.5-31.2-11.3c-8.6-7.8-13.6-18.5-14.1-30.1c-0.2-5-4.4-8.8-9.4-8.6c-5,0.2-8.8,4.4-8.6,9.4
		c0.7,16.4,7.8,31.5,19.9,42.6c11.4,10.4,26,16.1,41.3,16.1c0.9,0,1.9,0,2.8-0.1c16.4-0.7,31.5-7.8,42.6-19.9
		c2.6-2.8,4.9-5.9,6.9-9.1c-0.3,1.8-0.6,3.7-1.1,5.5c-6.4,23.1-30.3,36.7-53.4,30.3c-4.8-1.3-9.7,1.5-11.1,6.3
		c-1.3,4.8,1.5,9.7,6.3,11.1c5.4,1.5,10.9,2.2,16.3,2.2c26.9,0,51.7-17.9,59.2-45.1c5.6-20.3,0.3-41.1-12.4-56
		c1.7,0.8,3.4,1.8,5,2.8c9.7,6.4,16.3,16.2,18.6,27.5c2.3,11.4,0.1,22.9-6.3,32.6c-2.7,4.1-1.6,9.7,2.6,12.5c1.5,1,3.2,1.5,4.9,1.5
		c2.9,0,5.8-1.4,7.5-4C175.4,142.2,178.6,125.8,175.3,109.8z M102,120.8c-9.5,0.4-17.4-6.9-17.9-16.3c-0.4-9.4,6.9-17.4,16.3-17.9
		c0.3,0,0.5,0,0.8,0c9.2,0,16.6,7.2,17.1,16.3c0.2,4.6-1.4,8.9-4.5,12.3C110.8,118.6,106.6,120.6,102,120.8z"/>
	<polygon display="none" fill="none" stroke="#FFFFFF" stroke-width="6" stroke-miterlimit="10" points="53.7,172 24.4,80.2 
		101,23.7 177.6,80.7 148.3,172 	"/>
</g>
<g id="Layer_3">
	<polygon fill="none" stroke="#FFFFFF" stroke-width="6" stroke-miterlimit="10" points="53.7,172 24.4,80.2 101,23.7 177.6,80.7 
		148.3,172 	"/>
	<circle fill="none" stroke="#FFFFFF" stroke-width="5" stroke-miterlimit="10" cx="101.6" cy="103.9" r="5.6"/>
	<rect x="98.4" y="25.7" fill="#FFFFFF" width="6" height="72.7"/>
	
		<rect x="74.9" y="102.1" transform="matrix(0.809 0.5878 -0.5878 0.809 96.8517 -19.1723)" fill="#FFFFFF" width="6" height="74.6"/>
	
		<rect x="122.4" y="101.2" transform="matrix(-0.809 0.5878 -0.5878 -0.809 308.2889 176.8111)" fill="#FFFFFF" width="6" height="74.6"/>
	
		<rect x="59.1" y="56.4" transform="matrix(-0.309 0.9511 -0.9511 -0.309 169.5124 62.2627)" fill="#FFFFFF" width="6" height="72.7"/>
	
		<rect x="138" y="56.4" transform="matrix(0.309 0.9511 -0.9511 0.309 185.6248 -70.0199)" fill="#FFFFFF" width="6" height="72.7"/>
	<circle fill="#FFFFFF" cx="149.5" cy="169.5" r="7.3"/>
	<circle fill="#FFFFFF" cx="53.5" cy="171.5" r="7.3"/>
	<circle fill="#FFFFFF" cx="176.5" cy="79.5" r="7.3"/>
	<circle fill="#FFFFFF" cx="22.5" cy="79.5" r="7.3"/>
	<circle fill="#FFFFFF" cx="101" cy="24" r="7.3"/>
</g>
</svg>
