<?xml version="1.0" encoding="utf-8"?>
<!-- Generator: Adobe Illustrator 18.0.0, SVG Export Plug-In . SVG Version: 6.00 Build 0)  -->
<!DOCTYPE svg PUBLIC "-//W3C//DTD SVG 1.1//EN" "http://www.w3.org/Graphics/SVG/1.1/DTD/svg11.dtd">
<svg version="1.1" id="Layer_1" xmlns="http://www.w3.org/2000/svg" xmlns:xlink="http://www.w3.org/1999/xlink" x="0px" y="0px"
	 viewBox="0 0 64 64" enable-background="new 0 0 64 64" xml:space="preserve">
<g id="Layer_2">
	<rect y="-1.4" display="none" width="64" height="67.1"/>
</g>
<g id="Layer_1_1_">
	<polygon display="none" fill="none" stroke="#FFFFFF" stroke-width="6" stroke-miterlimit="10" points="17.2,55 7.8,25.7 32.3,7.6 
		56.8,25.8 47.5,55 	"/>
</g>
<g id="Layer_3">
	<circle fill="none" stroke="#FFFFFF" stroke-width="5" stroke-miterlimit="10" cx="32.5" cy="33.2" r="1.8"/>
	<g>
		<g>
			<path fill="#FFFFFF" d="M20.1,27l8.2,2.7c0.5-0.6,1.2-1.1,1.9-1.4v-7.6c-0.2,0.1-0.4,0.2-0.7,0.3c0.2-0.2,0.4-0.4,0.7-0.6v-7
				c-1,0.5-2,1.2-2.9,2C23.4,18.2,20.9,22.3,20.1,27z M40.2,16.7l-5-3.7v4.4C36.8,16.8,38.5,16.6,40.2,16.7z M19.1,20.5l-5.8,4.3
				l4.9,1.6C18,24.4,18.3,22.5,19.1,20.5z M15.6,41.1c-0.1-0.1-0.2-0.2-0.3-0.2l2.7,8.4c0.1,0,0.2,0.1,0.3,0.1l3.6-5
				C19.6,43.9,17.4,42.8,15.6,41.1z M23,42.9l4.8-6.7c-0.3-0.4-0.5-1-0.7-1.5L13,30.1c0.2,0.7,0.4,1.5,0.7,2.2
				C15.5,37.1,18.9,40.7,23,42.9z M37.6,34.8c-0.1,0.4-0.3,0.7-0.5,1.1l4.2,5.8c0.1-0.2,0.2-0.3,0.3-0.4c0,0.2-0.1,0.5-0.1,0.7
				l4.2,5.7c0.5-1,0.9-2,1.2-3.1c1.2-4.3,0.8-8.6-0.7-12.5L37.6,34.8z M25,50.5c0.3,0,0.6,0,0.9,0c4.5-0.2,8.7-1.9,12.1-4.9l-5.1-7
				c-0.1,0-0.1,0-0.2,0c-0.1,0-0.2,0-0.2,0l-8.6,11.8C24.2,50.5,24.6,50.5,25,50.5z M36.6,29.7l7-2.3c-0.2-0.3-0.5-0.6-0.7-0.9
				c0.4,0.2,0.9,0.4,1.3,0.7l6.6-2.1c-0.9-0.9-2-1.8-3.1-2.5c-3.7-2.5-8.1-3.6-12.4-3.2v9C35.7,28.8,36.2,29.2,36.6,29.7z
				 M22.7,58.2c1.7,0.5,3.5,0.7,5.2,0.7c2.5,0,4.8-0.5,7.1-1.3H21.5C21.9,57.9,22.3,58.1,22.7,58.2z M5.3,31.7c0.2,5,2.3,9.7,6,13.2
				l-5-15.5C5.7,30,5.3,30.8,5.3,31.7z M56.3,36l-4.8,15.1c0.7-0.2,1.4-0.6,1.9-1.2C56,45.8,57,40.9,56.3,36z M25.2,7
				c-4.9,1.9-8.8,5.5-11,10.3c-0.1,0.2-0.2,0.5-0.3,0.7L28.1,7.6C27.3,6.9,26.2,6.7,25.2,7z M48.4,31.3c1,1.5,1.7,3.2,2.1,5
				c0,0.2,0.1,0.4,0.1,0.7l2.3-7.1L48.4,31.3z M32.2,52.5h10.3c0.1-0.1,0.2-0.2,0.3-0.3l-3.5-4.8C37.5,49.8,35,51.6,32.2,52.5z
				 M54.8,18.3c-3.3-4.1-7.9-6.7-13.2-7.3c-0.2,0-0.3,0-0.5,0l14,10.4C55.6,20.4,55.5,19.2,54.8,18.3z"/>
		</g>
	</g>
	<g>
		<g>
			<path fill="#FFFFFF" d="M32.3,6.4L6.7,25.3L16.5,56h31.7L58,25.4L32.3,6.4z M46,54.1H19.3l13.4-18.4L46,54.1z M47.3,52.5
				L33.9,34.1l-1.6,1.1l0.1,0.1l-1.2-0.9L17.6,53.1L9.3,27.3l21.3,6.9l0.6-1.8L9.8,25.4L31.6,9.3v22h1.9V9.7l21.3,15.8l-21.1,6.8
				l0.6,1.8l21-6.8L47.3,52.5z"/>
		</g>
	</g>
	<circle fill="#FFFFFF" cx="47.8" cy="54.2" r="2.3"/>
	<circle fill="#FFFFFF" cx="17.1" cy="54.9" r="2.3"/>
	<circle fill="#FFFFFF" cx="56.5" cy="25.4" r="2.3"/>
	<circle fill="#FFFFFF" cx="7.2" cy="25.4" r="2.3"/>
	<circle fill="#FFFFFF" cx="32.3" cy="7.7" r="2.3"/>
</g>
</svg>
