<?xml version="1.0" encoding="utf-8"?>
<!-- Generator: Adobe Illustrator 18.0.0, SVG Export Plug-In . SVG Version: 6.00 Build 0)  -->
<!DOCTYPE svg PUBLIC "-//W3C//DTD SVG 1.1//EN" "http://www.w3.org/Graphics/SVG/1.1/DTD/svg11.dtd">
<svg version="1.1" xmlns="http://www.w3.org/2000/svg" xmlns:xlink="http://www.w3.org/1999/xlink" x="0px" y="0px"
	 viewBox="0 0 64 64" enable-background="new 0 0 64 64" xml:space="preserve">
<g id="Layer_2" display="none">
	<rect x="-0.3" y="0" display="inline" stroke="#000000" stroke-width="0.8373" stroke-miterlimit="10" width="64" height="64"/>
</g>
<g id="Layer_1" display="none">
	<path display="inline" fill="none" stroke="#FFFFFF" stroke-width="2" stroke-miterlimit="10" d="M31.9,26"/>
	<g display="inline">
		<g>
			<path fill="#FFFFFF" d="M31.7,8.6c2.1,0,4.2,0.5,5.9,1.5L55.5,21c3.2,1.9,3.5,5.1,0.4,7L49,32.2v11.8c0,0-1.8,4.2-6.1,6.6
				c-2.6,1.5-6.1,2.3-10.4,2.5c-4.4-0.1-7.5-1-10.2-2.5C18,48.3,16,44.1,16,44.1V32.3l-0.2,0L15.3,32l-6.9-4.2
				c-3.2-1.9-3.3-5.1-0.2-7L26.1,10C27.7,9,29.7,8.6,31.7,8.6 M31.7,6.6c-2.5,0-4.8,0.6-6.6,1.7l-18,10.9c-2.1,1.3-3.2,3.1-3.2,5.1
				c0,2,1.5,4,3.6,5.3l6.5,3.8v10.7v0.5l0,0.4c0.1,0.2,2.4,4.7,7.2,7.4c3.1,1.7,6.7,2.6,11.2,2.7l0,0l0,0c4.5-0.1,8.3-1,11.2-2.7
				c4.8-2.8,6.9-7.4,6.9-7.6l0.4-0.3v-0.4V33.4l5.9-3.7c2.1-1.3,3.1-3.1,3.1-5.1c0-2-1.3-4-3.5-5.3L38.6,8.4
				C36.8,7.2,34.3,6.6,31.7,6.6L31.7,6.6z"/>
		</g>
	</g>
	<path display="inline" fill="none" stroke="#FFFFFF" stroke-width="2" stroke-miterlimit="10" d="M31.9,35"/>
	
		<text transform="matrix(1.0475 0 0 1 25.3296 38.6457)" display="inline" opacity="0.18" fill="#FFFFFF" font-family="'FiraSans-Book'" font-size="27.4686">?</text>
</g>
<g id="Layer_3">
	<path fill="none" stroke="#FFFFFF" stroke-width="2" stroke-miterlimit="10" d="M53.8,18.5c-0.3-0.8-0.9-1.6-2-2.2l-0.5-0.3
		c0.6-1.1,0.4-2.4-0.5-3.4l-0.3-0.3c-1.1-1.1-3-1.1-4.1,0l-0.4,0.4l-9.7-5.9c-2.8-1.7-7.2-1.7-9.9-0.1L11,16.3
		c-0.9,0.6-1.5,1.2-1.8,1.9L9,18.7v24l0.1,0.5c0.2,0.9,0.9,1.8,2,2.5l1.3,0.8c-0.9,1.1-0.9,2.8,0.2,3.9l0.3,0.3c1.1,1.1,3,1.1,4.1,0
		l0.9-0.9l8.8,5.4c2.8,1.7,7.2,1.7,9.9,0.1L52,45.7c1.1-0.7,1.8-1.6,1.9-2.5l0-0.5v-24L53.8,18.5z"/>
	
		<text transform="matrix(1.0475 0 0 1 25.173 39.7893)" opacity="0.18" fill="#FFFFFF" font-family="'FiraSans-Book'" font-size="27.4686">?</text>
</g>
</svg>
