<?xml version="1.0" encoding="utf-8"?>
<!-- Generator: Adobe Illustrator 18.0.0, SVG Export Plug-In . SVG Version: 6.00 Build 0)  -->
<!DOCTYPE svg PUBLIC "-//W3C//DTD SVG 1.1//EN" "http://www.w3.org/Graphics/SVG/1.1/DTD/svg11.dtd">
<svg version="1.1" xmlns="http://www.w3.org/2000/svg" xmlns:xlink="http://www.w3.org/1999/xlink" x="0px" y="0px"
	 viewBox="0 0 200 200" enable-background="new 0 0 200 200" xml:space="preserve">
<g id="Layer_2">
	<rect y="-5.3" display="none" fill="#603813" width="200" height="209.6"/>
	<path display="none" fill="#FFFFFF" d="M100.3,115.6c-0.3,0-0.5,0-0.8,0c-9.4,0.4-16.7,8.4-16.3,17.9c0.4,9.4,8.4,16.7,17.9,16.3
		c4.6-0.2,8.8-2.2,11.9-5.5c3.1-3.4,4.7-7.7,4.5-12.3C116.9,122.8,109.4,115.6,100.3,115.6z"/>
	<path display="none" fill="#FFFFFF" d="M100.3,115.6c-0.3,0-0.5,0-0.8,0c-9.4,0.4-16.7,8.4-16.3,17.9c0.4,9.4,8.4,16.7,17.9,16.3
		c4.6-0.2,8.8-2.2,11.9-5.5c3.1-3.4,4.7-7.7,4.5-12.3C116.9,122.8,109.4,115.6,100.3,115.6z"/>
</g>
<g id="Layer_4" opacity="0.29">
	<g>
		<g>
			<path fill="#FFFFFF" d="M23.5,85.8c4,0,7.3-3.3,7.3-7.3s-3.3-7.3-7.3-7.3s-7.3,3.3-7.3,7.3S19.5,85.8,23.5,85.8z M101.9,17.2
				l5.8,10.3c1-1.2,1.6-2.8,1.6-4.6c0-4-3.3-7.3-7.3-7.3S94.7,19,94.7,23c0,1.7,0.6,3.2,1.5,4.4L101.9,17.2z M118,52.4
				c14.7-2.1,30.1,3.4,40.1,15.9c3.1,3.9,8.8,4.5,12.6,1.4c3.9-3.1,4.5-8.8,1.4-12.6c-10.2-12.8-24.8-20.9-41.1-22.7
				c-6.5-0.7-12.9-0.4-19.1,0.8L118,46V52.4z M177.5,71.3c-4,0-7.3,3.3-7.3,7.3s3.3,7.3,7.3,7.3s7.3-3.3,7.3-7.3
				S181.5,71.3,177.5,71.3z M149.9,70.8c-9.7-6.4-20.7-9.8-31.9-10.1v36.4c0,0,0,0,0,0c0.2,0.5,0.4,0.9,0.5,1.4c0,0,0,0,0,0
				c0.1,0.5,0.3,0.9,0.4,1.4c0,0.1,0,0.3,0.1,0.4c0.1,0.4,0.2,0.7,0.2,1.1c0.1,0.5,0.1,1.1,0.1,1.6c0.2,4.6-1.4,8.9-4.5,12.3
				c-3.1,3.4-7.3,5.3-11.9,5.5c-9.5,0.4-17.4-6.9-17.9-16.3c0-0.5,0-1.1,0-1.6c0-0.4,0.1-0.7,0.1-1c0-0.2,0-0.3,0.1-0.5
				c0.1-0.5,0.2-0.9,0.3-1.3c0,0,0-0.1,0-0.1c0.1-0.5,0.2-0.9,0.4-1.4V47.2c-0.1,0-0.1,0.1-0.2,0.1C73,57.6,64.9,72.2,63.1,88.5
				c-0.4,3.8-0.5,7.6-0.2,11.4c-0.9-1.6-1.7-3.3-2.3-5.1c-4.1-10.9-3.7-22.6,1.1-33.2C66.5,51,75.1,42.9,85.9,38.9
				c4.7-1.7,7-6.9,5.3-11.6c-1.7-4.7-6.9-7-11.6-5.3c-15.4,5.8-27.5,17.2-34.3,32.1s-7.3,31.6-1.6,47c7.4,19.7,23.9,33.4,43,38
				c-1.9,0.3-3.8,0.6-5.7,0.6c-11.6,0.5-22.7-3.5-31.2-11.3c-8.6-7.8-13.6-18.5-14.1-30.1c-0.2-5-4.4-8.8-9.4-8.6
				c-5,0.2-8.8,4.4-8.6,9.4c0.7,16.4,7.8,31.5,19.9,42.6c11.4,10.4,26,16.1,41.3,16.1c0.9,0,1.9,0,2.8-0.1
				c16.4-0.7,31.5-7.8,42.6-19.9c2.6-2.8,4.9-5.9,6.9-9.1c-0.3,1.8-0.6,3.7-1.1,5.5c-6.4,23.1-30.3,36.7-53.4,30.3
				c-4.8-1.3-9.7,1.5-11.1,6.3c-1.3,4.8,1.5,9.7,6.3,11.1c5.4,1.5,10.9,2.2,16.3,2.2c26.9,0,51.7-17.9,59.2-45.1
				c5.6-20.3,0.3-41.1-12.4-56c1.7,0.8,3.4,1.8,5,2.8c9.7,6.4,16.3,16.2,18.6,27.5c2.3,11.4,0.1,22.9-6.3,32.6
				c-2.7,4.1-1.6,9.7,2.6,12.5c1.5,1,3.2,1.5,4.9,1.5c2.9,0,5.8-1.4,7.5-4c9-13.7,12.2-30.1,8.9-46.1
				C173,93.7,163.6,79.9,149.9,70.8z M54.5,163.3c-4,0-7.3,3.3-7.3,7.3s3.3,7.3,7.3,7.3s7.3-3.3,7.3-7.3S58.5,163.3,54.5,163.3z
				 M150.5,161.3c-4,0-7.3,3.3-7.3,7.3s3.3,7.3,7.3,7.3s7.3-3.3,7.3-7.3S154.5,161.3,150.5,161.3z"/>
		</g>
	</g>
</g>
<g id="Layer_3">
	<path display="none" d="M118,97.1V46l-16.1-28.8L86,46v52.5c-0.6,1.9-0.9,3.9-0.8,6c0.4,9.4,8.4,16.7,17.9,16.3
		c4.6-0.2,8.8-2.2,11.9-5.5c3.1-3.4,4.7-7.7,4.5-12.3C119.2,100.9,118.8,98.9,118,97.1z"/>
	<g>
		<path fill="#FFFFFF" d="M101.9,20.5l13.7,24.1l-13.7,8.8l-13.1-8.8L101.9,20.5 M101.8,14.7L85.2,45.5l16.7,11.2l17.5-11.2
			L101.8,14.7L101.8,14.7z"/>
	</g>
	<path fill="#FFFFFF" d="M108.6,28.6c0,0-2.7,2.4-6.7,2.4c-4,0-6.7-2.4-6.7-2.4l6.7-8.8L108.6,28.6z"/>
	<g>
		<g>
			<path fill="#FFFFFF" d="M87.5,112.4V45.5h-2.4v59C85.3,107.4,86.2,110.1,87.5,112.4z"/>
		</g>
	</g>
	<g>
		<g>
			<path fill="#FFFFFF" d="M119.3,103L119.3,103l0-57.4H117v66.9C118.7,109.6,119.5,106.3,119.3,103z"/>
		</g>
	</g>
	<g>
		<g>
			<path fill="#FFFFFF" d="M103,120.8c0.4,0,0.8-0.1,1.2-0.1V54.9h-4.6v65.7C100.7,120.8,101.9,120.9,103,120.8z"/>
		</g>
	</g>
	<path display="none" fill="#FFFFFF" d="M85.2,104.5c0.4,9.4,8.4,16.7,17.9,16.3c4.6-0.2,8.8-2.2,11.9-5.5c3.1-3.4,4.7-7.7,4.5-12.3
		l13.2,3.9l-18.1,23.6l-31.3-3.1l-2.7-14L85.2,104.5z"/>
	<path display="none" fill="#FFFFFF" d="M102.3,86.6c-0.3,0-0.5,0-0.8,0c-9.4,0.4-16.7,8.4-16.3,17.9c0.4,9.4,8.4,16.7,17.9,16.3
		c4.6-0.2,8.8-2.2,11.9-5.5c3.1-3.4,4.7-7.7,4.5-12.3C118.9,93.8,111.4,86.6,102.3,86.6z"/>
</g>
</svg>
