<?xml version="1.0" encoding="utf-8"?>
<!-- Generator: Adobe Illustrator 18.0.0, SVG Export Plug-In . SVG Version: 6.00 Build 0)  -->
<!DOCTYPE svg PUBLIC "-//W3C//DTD SVG 1.1//EN" "http://www.w3.org/Graphics/SVG/1.1/DTD/svg11.dtd">
<svg version="1.1" id="Layer_1" xmlns="http://www.w3.org/2000/svg" xmlns:xlink="http://www.w3.org/1999/xlink" x="0px" y="0px"
	 viewBox="0 0 64 64" enable-background="new 0 0 64 64" xml:space="preserve">
<g id="Layer_2" display="none">
	<rect y="-1.7" display="inline" width="64" height="67.1"/>
	<path fill="#FFFFFF" d="M32.1,37c-0.1,0-0.2,0-0.3,0c-3,0.1-5.3,2.7-5.2,5.7c0.1,3,2.7,5.3,5.7,5.2c1.5-0.1,2.8-0.7,3.8-1.8
		c1-1.1,1.5-2.5,1.4-3.9C37.4,39.3,35,37,32.1,37z"/>
	<path fill="#FFFFFF" d="M32.1,37c-0.1,0-0.2,0-0.3,0c-3,0.1-5.3,2.7-5.2,5.7c0.1,3,2.7,5.3,5.7,5.2c1.5-0.1,2.8-0.7,3.8-1.8
		c1-1.1,1.5-2.5,1.4-3.9C37.4,39.3,35,37,32.1,37z"/>
</g>
<g id="Layer_4">
	<circle fill="#FFFFFF" cx="48.2" cy="53.9" r="2.3"/>
	<circle fill="#FFFFFF" cx="17.4" cy="54.6" r="2.3"/>
	<circle fill="#FFFFFF" cx="56.8" cy="25.1" r="2.3"/>
	<circle fill="#FFFFFF" cx="7.5" cy="25.1" r="2.3"/>
	<path fill="#FFFFFF" d="M27.2,33.6"/>
	<g>
		<g>
			<path fill="#FFFFFF" d="M39.1,16.6c4.3-0.2,8.6,1.6,11.4,5.2c1,1.2,2.8,1.4,4,0.4c1.2-1,1.4-2.8,0.4-4c-3.3-4.1-7.9-6.7-13.2-7.3
				c-1.6-0.2-3.1-0.2-4.6,0l1.9,3.3L39.1,16.6z M56.4,35.1c-1.1-5.2-4-9.6-8.4-12.4c-2.7-1.8-5.7-2.8-8.8-3.1v13.8
				c0,0.1,0,0.2,0,0.4c0,3.6-2.9,6.4-6.5,6.4s-6.5-2.9-6.5-6.4c0-0.1,0-0.1,0-0.2c0-0.7,0-3.6,0-17.2c-3.4,3.2-5.5,7.4-6.1,12.1
				c-0.1,1.2-0.2,2.4-0.1,3.6c-0.3-0.5-0.5-1.1-0.7-1.6c-1.3-3.5-1.2-7.2,0.4-10.6c1.5-3.3,4.2-5.8,7.5-7.2l2-3.6
				c0-0.1,0-0.1-0.1-0.2c-0.5-1.5-2.2-2.2-3.7-1.7c-4.9,1.9-8.8,5.5-11,10.3s-2.3,10.1-0.5,15c2.4,6.3,7.6,10.7,13.8,12.2
				c-0.6,0.1-1.2,0.2-1.8,0.2c-3.7,0.2-7.3-1.1-10-3.6c-2.8-2.5-4.4-5.9-4.5-9.6c-0.1-1.6-1.4-2.8-3-2.8c-1.6,0.1-2.8,1.4-2.8,3
				c0.2,5.2,2.5,10.1,6.4,13.6c3.6,3.3,8.3,5.2,13.2,5.2c0.3,0,0.6,0,0.9,0c5.2-0.2,10.1-2.5,13.6-6.4c0.8-0.9,1.6-1.9,2.2-2.9
				c-0.1,0.6-0.2,1.2-0.4,1.8c-2,7.4-9.7,11.7-17.1,9.7c-1.5-0.4-3.1,0.5-3.6,2c-0.4,1.5,0.5,3.1,2,3.6c1.7,0.5,3.5,0.7,5.2,0.7
				c8.6,0,16.5-5.7,18.9-14.4c1.8-6.5,0.1-13.2-4-17.9c0.5,0.3,1.1,0.6,1.6,0.9c3.1,2,5.2,5.2,6,8.8c0.7,3.6,0,7.3-2,10.4
				c-0.9,1.3-0.5,3.1,0.8,4c0.5,0.3,1,0.5,1.6,0.5c0.9,0,1.9-0.4,2.4-1.3C56.4,45.5,57.5,40.3,56.4,35.1z"/>
		</g>
	</g>
</g>
<g id="Layer_3">
	<g>
		<path fill="#FFFFFF" d="M32.6,6.6l4.4,7.7l-4.4,2.8l-4.2-2.8L32.6,6.6 M32.6,4.7l-5.3,9.9l5.3,3.6l5.6-3.6L32.6,4.7L32.6,4.7z"/>
	</g>
	<path fill="#FFFFFF" d="M34.8,9.2c0,0-0.9,0.8-2.1,0.8c-1.3,0-2.1-0.8-2.1-0.8l2.1-2.8L34.8,9.2z"/>
	<g>
		<g>
			<path fill="#FFFFFF" d="M28,36V14.6h-0.8v18.9C27.3,34.4,27.6,35.2,28,36z"/>
		</g>
	</g>
	<g>
		<g>
			<path fill="#FFFFFF" d="M38.2,33L38.2,33V14.6h-0.7V36C38,35.1,38.2,34,38.2,33z"/>
		</g>
	</g>
	<g>
		<g>
			<path fill="#FFFFFF" d="M33,38.7c0.1,0,0.3,0,0.4,0V17.6h-1.5v21C32.2,38.7,32.6,38.7,33,38.7z"/>
		</g>
	</g>
	<path display="none" fill="#FFFFFF" d="M27.3,33.4c0.1,3,2.7,5.3,5.7,5.2c1.5-0.1,2.8-0.7,3.8-1.8c1-1.1,1.5-2.5,1.4-3.9l4.2,1.2
		l-5.8,7.6l-10-1l-0.9-4.5L27.3,33.4z"/>
	<path display="none" fill="#FFFFFF" d="M32.7,27.7c-0.1,0-0.2,0-0.3,0c-3,0.1-5.3,2.7-5.2,5.7c0.1,3,2.7,5.3,5.7,5.2
		c1.5-0.1,2.8-0.7,3.8-1.8c1-1.1,1.5-2.5,1.4-3.9C38,30,35.6,27.7,32.7,27.7z"/>
</g>
</svg>
