<?xml version="1.0" encoding="utf-8"?>
<!-- Generator: Adobe Illustrator 18.0.0, SVG Export Plug-In . SVG Version: 6.00 Build 0)  -->
<!DOCTYPE svg PUBLIC "-//W3C//DTD SVG 1.1//EN" "http://www.w3.org/Graphics/SVG/1.1/DTD/svg11.dtd">
<svg version="1.1" xmlns="http://www.w3.org/2000/svg" xmlns:xlink="http://www.w3.org/1999/xlink" x="0px" y="0px"
	 viewBox="0 0 200 200" enable-background="new 0 0 200 200" xml:space="preserve">
<g id="Layer_2" display="none">
	<rect y="-5.3" display="inline" width="200" height="209.6"/>
	<path fill="#FFFFFF" d="M100.3,115.6c-0.3,0-0.5,0-0.8,0c-9.4,0.4-16.7,8.4-16.3,17.9c0.4,9.4,8.4,16.7,17.9,16.3
		c4.6-0.2,8.8-2.2,11.9-5.5c3.1-3.4,4.7-7.7,4.5-12.3C116.9,122.8,109.4,115.6,100.3,115.6z"/>
	<path fill="#FFFFFF" d="M100.3,115.6c-0.3,0-0.5,0-0.8,0c-9.4,0.4-16.7,8.4-16.3,17.9c0.4,9.4,8.4,16.7,17.9,16.3
		c4.6-0.2,8.8-2.2,11.9-5.5c3.1-3.4,4.7-7.7,4.5-12.3C116.9,122.8,109.4,115.6,100.3,115.6z"/>
</g>
<g id="Layer_3">
	<path display="none" fill="#FFFFFF" d="M85.2,104.5c0.4,9.4,8.4,16.7,17.9,16.3c4.6-0.2,8.8-2.2,11.9-5.5c3.1-3.4,4.7-7.7,4.5-12.3
		l13.2,3.9l-18.1,23.6l-31.3-3.1l-2.7-14L85.2,104.5z"/>
	<path display="none" fill="#FFFFFF" d="M102.3,86.6c-0.3,0-0.5,0-0.8,0c-9.4,0.4-16.7,8.4-16.3,17.9c0.4,9.4,8.4,16.7,17.9,16.3
		c4.6-0.2,8.8-2.2,11.9-5.5c3.1-3.4,4.7-7.7,4.5-12.3C118.9,93.8,111.4,86.6,102.3,86.6z"/>
</g>
<g id="Layer_4">
	<g>
		<g>
			<path fill="#FFFFFF" d="M43.3,38.9v123.6c0,6.6,5.4,12,12,12H60V26.9h-4.7C48.7,26.9,43.3,32.3,43.3,38.9z M154.3,26.9H71.2
				v147.6h83.2c6.6,0,12-5.4,12-12V38.9C166.3,32.3,160.9,26.9,154.3,26.9z M117.3,64.7c1.6,0,3,1.3,3,3c0,1.6-1.3,3-3,3s-3-1.3-3-3
				C114.3,66.1,115.7,64.7,117.3,64.7z M85.2,87.5c1.6,0,3,1.3,3,3s-1.3,3-3,3c-1.6,0-3-1.3-3-3S83.6,87.5,85.2,87.5z M97.9,131
				c-1.6,0-3-1.3-3-3s1.3-3,3-3c1.6,0,3,1.3,3,3S99.5,131,97.9,131z M137.2,130.2c-1.6,0-3-1.3-3-3c0-1.6,1.3-3,3-3c1.6,0,3,1.3,3,3
				C140.1,128.9,138.8,130.2,137.2,130.2z M144.1,122.1c-0.7,1.1-1.9,1.7-3.1,1.7c-0.7,0-1.4-0.2-2-0.6c-1.7-1.1-2.2-3.4-1-5.1
				c2.6-4,3.5-8.7,2.6-13.3c-1-4.6-3.7-8.6-7.6-11.3c-0.7-0.4-1.3-0.8-2-1.1c5.2,6.1,7.3,14.6,5,22.9c-3.1,11.1-13.2,18.4-24.2,18.4
				c-2.2,0-4.4-0.3-6.7-0.9c-2-0.5-3.1-2.6-2.6-4.5c0.5-2,2.6-3.1,4.5-2.6c9.4,2.6,19.2-3,21.8-12.4c0.2-0.7,0.3-1.5,0.4-2.2
				c-0.8,1.3-1.7,2.5-2.8,3.7c-4.5,5-10.7,7.8-17.4,8.2c-0.4,0-0.8,0-1.2,0c-6.3,0-12.2-2.3-16.9-6.6c-5-4.5-7.8-10.7-8.2-17.4
				c-0.1-2,1.5-3.8,3.5-3.8c2-0.1,3.8,1.5,3.8,3.5c0.2,4.7,2.3,9.1,5.8,12.3c3.5,3.2,8,4.8,12.8,4.6c0.8,0,1.6-0.1,2.3-0.3
				c-7.8-1.9-14.5-7.5-17.6-15.6c-2.4-6.3-2.1-13.1,0.6-19.2c2.8-6.1,7.8-10.8,14-13.1c1.9-0.7,4,0.2,4.7,2.2c0.7,1.9-0.2,4-2.2,4.7
				c-4.4,1.7-8,5-9.9,9.3c-2,4.3-2.1,9.1-0.5,13.6c0.3,0.7,0.6,1.4,1,2.1c-0.1-1.5-0.1-3.1,0.1-4.6c0.7-6.7,4.1-12.6,9.3-16.8
				c5.2-4.2,11.8-6.1,18.5-5.3c6.7,0.7,12.6,4.1,16.8,9.3c1.3,1.6,1,3.9-0.6,5.2c-1.6,1.3-3.9,1-5.2-0.6c-6.1-7.7-17.3-8.9-25-2.8
				c-0.6,0.5-1.2,1-1.7,1.5c1.4-0.6,2.9-1,4.4-1.3c6.6-1.3,13.3-0.1,18.9,3.6c5.6,3.7,9.4,9.3,10.8,15.9
				C149.1,109.8,147.8,116.5,144.1,122.1z M148.2,93.4c-1.6,0-3-1.3-3-3s1.3-3,3-3s3,1.3,3,3S149.8,93.4,148.2,93.4z M117.4,93.7
				c-0.1,0-0.2,0-0.3,0c-3.9,0.2-6.8,3.5-6.7,7.3c0.2,3.9,3.4,6.8,7.3,6.7c1.9-0.1,3.6-0.9,4.8-2.3c1.3-1.4,1.9-3.2,1.8-5
				C124.2,96.7,121.2,93.7,117.4,93.7z"/>
		</g>
	</g>
</g>
</svg>
