<?xml version="1.0" encoding="utf-8"?>
<!-- Generator: Adobe Illustrator 18.0.0, SVG Export Plug-In . SVG Version: 6.00 Build 0)  -->
<!DOCTYPE svg PUBLIC "-//W3C//DTD SVG 1.1//EN" "http://www.w3.org/Graphics/SVG/1.1/DTD/svg11.dtd">
<svg version="1.1" xmlns="http://www.w3.org/2000/svg" xmlns:xlink="http://www.w3.org/1999/xlink" x="0px" y="0px"
	 viewBox="0 0 200 200" enable-background="new 0 0 200 200" xml:space="preserve">
<g id="Layer_2" display="none">
	<rect y="-5.3" display="inline" width="200" height="209.6"/>
	<path fill="#FFFFFF" d="M100.3,115.6c-0.3,0-0.5,0-0.8,0c-9.4,0.4-16.7,8.4-16.3,17.9c0.4,9.4,8.4,16.7,17.9,16.3
		c4.6-0.2,8.8-2.2,11.9-5.5c3.1-3.4,4.7-7.7,4.5-12.3C116.9,122.8,109.4,115.6,100.3,115.6z"/>
	<path fill="#FFFFFF" d="M100.3,115.6c-0.3,0-0.5,0-0.8,0c-9.4,0.4-16.7,8.4-16.3,17.9c0.4,9.4,8.4,16.7,17.9,16.3
		c4.6-0.2,8.8-2.2,11.9-5.5c3.1-3.4,4.7-7.7,4.5-12.3C116.9,122.8,109.4,115.6,100.3,115.6z"/>
</g>
<g id="Layer_3">
	<path display="none" fill="#FFFFFF" d="M85.2,104.5c0.4,9.4,8.4,16.7,17.9,16.3c4.6-0.2,8.8-2.2,11.9-5.5c3.1-3.4,4.7-7.7,4.5-12.3
		l13.2,3.9l-18.1,23.6l-31.3-3.1l-2.7-14L85.2,104.5z"/>
	<path display="none" fill="#FFFFFF" d="M102.3,86.6c-0.3,0-0.5,0-0.8,0c-9.4,0.4-16.7,8.4-16.3,17.9c0.4,9.4,8.4,16.7,17.9,16.3
		c4.6-0.2,8.8-2.2,11.9-5.5c3.1-3.4,4.7-7.7,4.5-12.3C118.9,93.8,111.4,86.6,102.3,86.6z"/>
	<g>
		<g>
			<path fill="none" stroke="#FFFFFF" stroke-width="6" stroke-miterlimit="10" d="M49.3,159.4V32.3H44c-6.6,0-12,5.4-12,12v123.6
				c0,6.6,5.4,12,12,12h99.1c6.6,0,12-5.4,12-12v-8.4H49.3z"/>
		</g>
	</g>
</g>
<g id="Layer_5">
	<g>
		<g>
			<path fill="#FFFFFF" d="M103,90.6c-0.1,0-0.2,0-0.3,0c-3.7,0.2-6.6,3.3-6.5,7.1c0.2,3.7,3.3,6.6,7.1,6.5c1.8-0.1,3.5-0.9,4.7-2.2
				c1.2-1.3,1.9-3.1,1.8-4.9C109.6,93.4,106.6,90.6,103,90.6z M140,35V20.9H54.6c-6.6,0-12,5.4-12,12v123.6c0,6.6,5.4,12,12,12h99.1
				c6.6,0,12-5.4,12-12V47H152C145.4,47,140,41.6,140,35z M59.7,35h65.5c2,0,3.7,1.5,3.7,3.5s-1.7,3.5-3.7,3.5H59.7
				c-2,0-3.7-1.5-3.7-3.5S57.7,35,59.7,35z M105.8,65.3c0,1.6-1.3,2.9-2.9,2.9s-2.9-1.3-2.9-2.9c0-1.6,1.3-2.9,2.9-2.9
				S105.8,63.7,105.8,65.3z M59.7,47h18.6c2,0,3.7,1.5,3.7,3.5S80.3,54,78.3,54H59.7c-2,0-3.7-1.5-3.7-3.5S57.7,47,59.7,47z
				 M74.6,87.4c0,1.6-1.3,2.9-2.9,2.9c-1.6,0-2.9-1.3-2.9-2.9s1.3-2.9,2.9-2.9C73.3,84.5,74.6,85.8,74.6,87.4z M125.2,156H59.7
				c-2,0-3.7-1.5-3.7-3.5s1.7-3.5,3.7-3.5h65.5c2,0,3.7,1.5,3.7,3.5S127.2,156,125.2,156z M81.1,123.9c0-1.6,1.3-2.9,2.9-2.9
				c1.6,0,2.9,1.3,2.9,2.9s-1.3,2.9-2.9,2.9C82.4,126.8,81.1,125.5,81.1,123.9z M119.2,123.1c0-1.6,1.3-2.9,2.9-2.9
				c1.6,0,2.9,1.3,2.9,2.9c0,1.6-1.3,2.9-2.9,2.9C120.5,126,119.2,124.7,119.2,123.1z M128.8,118.1c-0.7,1-1.8,1.6-3,1.6
				c-0.7,0-1.4-0.2-2-0.6c-1.6-1.1-2.1-3.3-1-4.9c2.5-3.8,3.4-8.4,2.5-12.9c-0.9-4.5-3.5-8.4-7.4-10.9c-0.6-0.4-1.3-0.8-2-1.1
				c5,5.9,7.1,14.2,4.9,22.2c-3,10.8-12.8,17.9-23.5,17.9c-2.1,0-4.3-0.3-6.5-0.9c-1.9-0.5-3-2.5-2.5-4.4c0.5-1.9,2.5-3,4.4-2.5
				c9.2,2.5,18.7-2.9,21.2-12c0.2-0.7,0.3-1.4,0.4-2.2c-0.8,1.3-1.7,2.5-2.7,3.6c-4.4,4.8-10.4,7.6-16.9,7.9c-0.4,0-0.8,0-1.1,0
				c-6.1,0-11.9-2.2-16.4-6.4c-4.8-4.4-7.6-10.4-7.9-16.9c-0.1-2,1.4-3.6,3.4-3.7c2-0.1,3.6,1.4,3.7,3.4c0.2,4.6,2.2,8.8,5.6,11.9
				c3.4,3.1,7.8,4.7,12.4,4.5c0.8,0,1.5-0.1,2.2-0.3c-7.6-1.9-14.1-7.3-17-15.1c-2.3-6.1-2.1-12.7,0.6-18.6
				c2.7-5.9,7.5-10.5,13.6-12.7c1.8-0.7,3.9,0.2,4.6,2.1c0.7,1.8-0.2,3.9-2.1,4.6c-4.3,1.6-7.7,4.8-9.6,9c-1.9,4.2-2.1,8.9-0.4,13.2
				c0.3,0.7,0.6,1.4,0.9,2c-0.1-1.5-0.1-3,0.1-4.5c0.7-6.5,3.9-12.3,9-16.3c5.1-4.1,11.5-5.9,17.9-5.2c6.5,0.7,12.3,3.9,16.3,9
				c1.2,1.5,1,3.8-0.6,5c-1.5,1.2-3.8,1-5-0.6c-5.9-7.4-16.8-8.6-24.2-2.7c-0.6,0.5-1.1,1-1.6,1.5c1.4-0.6,2.8-1,4.3-1.3
				c6.4-1.3,12.9-0.1,18.3,3.5c5.4,3.6,9.1,9.1,10.5,15.4C133.7,106.1,132.4,112.6,128.8,118.1z M132.8,90.3c-1.6,0-2.9-1.3-2.9-2.9
				s1.3-2.9,2.9-2.9s2.9,1.3,2.9,2.9S134.4,90.3,132.8,90.3z M153.6,20.9H140L165.6,47V32.9C165.6,26.3,160.2,20.9,153.6,20.9z"/>
		</g>
	</g>
</g>
</svg>
