<?xml version="1.0" encoding="UTF-8" standalone="no"?>
<svg width="189px" height="189px" viewBox="0 0 189 189" version="1.1" xmlns="http://www.w3.org/2000/svg" xmlns:xlink="http://www.w3.org/1999/xlink" xmlns:sketch="http://www.bohemiancoding.com/sketch/ns">
    <!-- Generator: "Sketch Internal" 3.0 (7561) - http://www.bohemiancoding.com/sketch -->
    <title>main-logo-outline</title>
    <description>Created with "Sketch Internal".</description>
    <defs></defs>
    <g id="Page-1" stroke="none" stroke-width="1" fill="none" fill-rule="evenodd" sketch:type="MSPage">
        <g id="main-logo-outline" sketch:type="MSLayerGroup" transform="translate(-7.000000, -5.000000)" fill="#FFFFFF">
            <g id="Layer_2" transform="translate(7.000000, 5.000000)" sketch:type="MSShapeGroup">
                <g id="Group">
                    <path d="M96.3,80.6 L95.5,80.6 C86.1,81 78.8,89 79.2,98.5 C79.6,107.9 87.6,115.2 97.1,114.8 C101.7,114.6 105.9,112.6 109,109.3 C112.1,105.9 113.7,101.6 113.5,97 C112.9,87.8 105.4,80.6 96.3,80.6 L96.3,80.6 Z" id="Shape"></path>
                    <path d="M188.8,72.5 C188.8,65.3 184.4,59.1 178.1,56.5 C178.1,52.4 176.7,48.2 174,44.8 C162.1,29.9 145.1,20.5 126.2,18.4 C123.5,18.1 120.8,17.9 118.1,17.9 C117,17.9 115.9,17.9 114.8,18 L114.8,17.5 C114.8,8 107.1,0.2 97.5,0.2 C92,0.3 87.1,2.9 84,6.9 C81.8,6 79.3,5.5 76.8,5.5 C74.5,5.5 72.3,5.9 70.1,6.7 C52.2,13.4 38.1,26.7 30.2,44 C28.2,48.3 26.7,52.8 25.7,57.3 C23.3,56 20.5,55.3 17.6,55.3 C8,55.3 0.2,63 0.2,72.5 C0.2,76.6 1.7,80.4 4.1,83.4 C2.4,86.5 1.5,90 1.7,93.6 C2.6,112.7 10.8,130.2 24.9,143.1 C28.6,146.5 32.6,149.4 36.8,151.9 C33.4,155.1 31.3,159.5 31.3,164.5 C31.3,174 39,181.8 48.6,181.8 C50.8,181.8 53,181.4 54.9,180.6 C57.2,182.9 60.1,184.7 63.4,185.6 C69.6,187.3 76,188.2 82.4,188.2 L82.4,188.2 C100.1,188.2 116.6,181.6 129.3,170.5 C132.2,176 138,179.8 144.6,179.8 C154.1,179.8 161.9,172.1 161.9,162.5 L161.9,162.2 C165.1,160.7 167.9,158.4 169.9,155.4 C180.4,139.5 184.1,120.4 180.2,101.7 C179.3,97.3 178,93.1 176.4,89.1 C183.5,87.1 188.8,80.4 188.8,72.5 L188.8,72.5 Z M97.5,10.3 C101.5,10.3 104.8,13.6 104.8,17.6 C104.8,21.6 101.5,24.9 97.5,24.9 C93.5,24.9 90.2,21.6 90.2,17.6 C90.2,13.6 93.5,10.3 97.5,10.3 L97.5,10.3 Z M17.5,65.3 C21.5,65.3 24.8,68.6 24.8,72.6 C24.8,76.6 21.5,79.9 17.5,79.9 C13.5,79.9 10.2,76.6 10.2,72.6 C10.2,68.6 13.5,65.3 17.5,65.3 L17.5,65.3 Z M48.5,171.8 C44.5,171.8 41.2,168.5 41.2,164.5 C41.2,160.5 44.5,157.2 48.5,157.2 C52.5,157.2 55.8,160.5 55.8,164.5 C55.8,168.5 52.5,171.8 48.5,171.8 L48.5,171.8 Z M144.5,169.8 C140.5,169.8 137.2,166.5 137.2,162.5 C137.2,158.5 140.5,155.2 144.5,155.2 C148.5,155.2 151.8,158.5 151.8,162.5 C151.8,166.5 148.5,169.8 144.5,169.8 L144.5,169.8 Z M161.4,149.9 C159.7,152.5 156.8,153.9 153.9,153.9 C152.2,153.9 150.5,153.4 149,152.4 C144.9,149.7 143.7,144.1 146.4,139.9 C152.8,130.2 155,118.6 152.7,107.3 C150.4,95.9 143.8,86.2 134.1,79.8 C132.5,78.7 130.8,77.8 129.1,77 C141.8,92 147.1,112.7 141.5,133 C134,160.2 109.2,178.1 82.3,178.1 C76.9,178.1 71.4,177.4 66,175.9 C61.2,174.6 58.4,169.6 59.7,164.8 C61,160 66,157.2 70.8,158.5 C93.9,164.9 117.8,151.3 124.2,128.2 C124.7,126.4 125.1,124.5 125.3,122.7 C123.3,125.9 121,128.9 118.4,131.8 C107.3,143.9 92.2,151 75.8,151.7 C74.9,151.7 73.9,151.8 73,151.8 C57.6,151.8 43.1,146.2 31.7,135.7 C19.6,124.6 12.5,109.5 11.8,93.1 C11.6,88.1 15.4,83.9 20.4,83.7 C25.4,83.5 29.6,87.3 29.8,92.3 C30.3,103.9 35.3,114.6 43.9,122.4 C52.5,130.2 63.5,134.2 75.1,133.7 C77,133.6 78.9,133.4 80.8,133.1 C61.8,128.4 45.2,114.8 37.8,95.1 C32,79.7 32.6,63.1 39.4,48.1 C46.2,33.1 58.4,21.8 73.7,16 C78.4,14.3 83.5,16.6 85.3,21.3 C87,26 84.7,31.1 80,32.9 C69.1,36.9 60.5,45 55.7,55.6 C50.9,66.2 50.5,77.9 54.6,88.8 C55.3,90.6 56.1,92.3 56.9,93.9 C56.6,90.1 56.7,86.3 57.1,82.5 C58.9,66.2 67,51.6 79.8,41.4 C92.6,31.2 108.7,26.5 125,28.4 C141.3,30.2 155.9,38.3 166.1,51.1 C169.2,55 168.6,60.6 164.7,63.7 C160.8,66.8 155.2,66.2 152.1,62.3 C137.2,43.6 109.8,40.5 91.1,55.4 C89.6,56.6 88.2,57.9 86.9,59.2 C90.4,57.8 94,56.7 97.8,55.9 C113.9,52.6 130.3,55.8 143.9,64.8 C157.6,73.8 166.9,87.7 170.2,103.7 C173.6,119.8 170.4,136.2 161.4,149.9 L161.4,149.9 Z M171.5,79.8 C167.5,79.8 164.2,76.5 164.2,72.5 C164.2,68.5 167.5,65.2 171.5,65.2 C175.5,65.2 178.8,68.5 178.8,72.5 C178.8,76.5 175.5,79.8 171.5,79.8 L171.5,79.8 Z" id="Shape"></path>
                </g>
            </g>
        </g>
    </g>
</svg>