<?xml version="1.0" encoding="utf-8"?>
<!-- Generator: Adobe Illustrator 18.0.0, SVG Export Plug-In . SVG Version: 6.00 Build 0)  -->
<!DOCTYPE svg PUBLIC "-//W3C//DTD SVG 1.1//EN" "http://www.w3.org/Graphics/SVG/1.1/DTD/svg11.dtd">
<svg version="1.1" id="Layer_1" xmlns="http://www.w3.org/2000/svg" xmlns:xlink="http://www.w3.org/1999/xlink" x="0px" y="0px"
	 viewBox="0 0 200 200" enable-background="new 0 0 200 200" xml:space="preserve">
<g>
	<circle fill="#FFFFFF" cx="102.3" cy="106.7" r="25.4"/>
	<path fill="#FFFFFF" d="M102.2,140.4c-18.1,0-32.8-14.1-33.7-32.2c-0.8-18.6,13.6-34.4,32.2-35.2c18.7-0.9,34.4,13.6,35.2,32.2
		c0.4,9-2.7,17.6-8.8,24.3c-6.1,6.6-14.4,10.5-23.4,10.9C103.3,140.4,102.8,140.4,102.2,140.4z M102.3,89.6c-0.3,0-0.5,0-0.8,0
		c-9.4,0.4-16.7,8.4-16.3,17.9c0.4,9.4,8.4,16.7,17.9,16.3c4.6-0.2,8.8-2.2,11.9-5.5c3.1-3.4,4.7-7.7,4.5-12.3
		C118.9,96.8,111.4,89.6,102.3,89.6z"/>
</g>
<g>
	<g>
		<g>
			<path fill="#FFFFFF" d="M88.2,187.1c-5.4,0-10.9-0.7-16.3-2.2c-4.8-1.3-7.6-6.3-6.3-11.1c1.3-4.8,6.3-7.6,11.1-6.3
				c23.1,6.4,47-7.2,53.4-30.3c6.4-23.1-7.2-47-30.3-53.4c-4.8-1.3-7.6-6.3-6.3-11.1c1.3-4.8,6.3-7.6,11.1-6.3
				c32.6,9,51.9,42.9,42.9,75.5C139.9,169.3,115.2,187.1,88.2,187.1z"/>
		</g>
	</g>
	<g>
		<g>
			<path fill="#FFFFFF" d="M159.9,162.9c-1.7,0-3.4-0.5-4.9-1.5c-4.1-2.7-5.3-8.3-2.6-12.5c6.4-9.7,8.6-21.3,6.3-32.6
				c-2.3-11.4-8.9-21.1-18.6-27.5c-9.7-6.4-21.3-8.6-32.6-6.3c-11.4,2.3-21.1,8.9-27.5,18.6c-2.7,4.1-8.3,5.3-12.5,2.6
				s-5.3-8.3-2.6-12.5c9-13.7,22.9-23,38.9-26.3c16.1-3.3,32.5-0.1,46.1,8.9c13.7,9,23,22.9,26.3,38.9c3.3,16.1,0.1,32.5-8.9,46.1
				C165.7,161.5,162.8,162.9,159.9,162.9z"/>
		</g>
	</g>
	<g>
		<g>
			<path fill="#FFFFFF" d="M83.2,140.1c-2.6,0-5.3-1.2-7-3.4c-10.2-12.8-14.9-28.9-13-45.2c1.8-16.3,9.9-30.9,22.7-41.1
				c12.8-10.2,28.9-14.9,45.2-13c16.3,1.8,30.9,9.9,41.1,22.7c3.1,3.9,2.5,9.5-1.4,12.6c-3.9,3.1-9.5,2.5-12.6-1.4
				c-14.9-18.7-42.3-21.8-61-6.9C88,71.7,82.3,82,81,93.5c-1.3,11.5,2,22.9,9.2,31.9c3.1,3.9,2.5,9.5-1.4,12.6
				C87.1,139.4,85.1,140.1,83.2,140.1z"/>
		</g>
	</g>
	<g>
		<g>
			<path fill="#FFFFFF" d="M101.3,143.9c-24.9,0-48.3-15.2-57.6-39.8c-5.8-15.4-5.2-32,1.6-47s19-26.3,34.3-32.1
				c4.7-1.7,9.8,0.6,11.6,5.3c1.7,4.7-0.6,9.8-5.3,11.6C75.1,45.9,66.5,54,61.7,64.6c-4.8,10.6-5.2,22.3-1.1,33.2
				c8.4,22.4,33.5,33.8,55.9,25.4c4.6-1.7,9.8,0.6,11.6,5.3c1.7,4.7-0.6,9.8-5.3,11.6C115.7,142.6,108.4,143.9,101.3,143.9z"/>
		</g>
	</g>
	<g>
		<g>
			<path fill="#FFFFFF" d="M79,160.8c-15.4,0-29.9-5.6-41.3-16.1c-12.1-11.1-19.2-26.2-19.9-42.6c-0.2-5,3.6-9.2,8.6-9.4
				c5-0.2,9.2,3.6,9.4,8.6c0.5,11.6,5.5,22.3,14.1,30.1c8.6,7.8,19.6,11.8,31.2,11.3c11.6-0.5,22.3-5.5,30.1-14.1
				c7.8-8.6,11.8-19.7,11.3-31.2c-0.2-5,3.6-9.2,8.6-9.4c5-0.2,9.2,3.6,9.4,8.6c0.7,16.4-4.9,32.1-16,44.2S98.2,160,81.8,160.8
				C80.8,160.8,79.9,160.8,79,160.8z"/>
		</g>
	</g>
</g>
<circle fill="#FFFFFF" cx="150.5" cy="171.5" r="7.3"/>
<circle fill="#FFFFFF" cx="54.5" cy="173.5" r="7.3"/>
<circle fill="#FFFFFF" cx="177.5" cy="81.5" r="7.3"/>
<circle fill="#FFFFFF" cx="23.5" cy="81.5" r="7.3"/>
<circle fill="#FFFFFF" cx="103.5" cy="26.5" r="7.3"/>
</svg>
